<?xml version="1.0" encoding="UTF-8" standalone="no"?>
<!DOCTYPE svg PUBLIC "-//W3C//DTD SVG 1.1//EN" "http://www.w3.org/Graphics/SVG/1.1/DTD/svg11.dtd">
<svg width="100%" height="100%" viewBox="0 0 3208 913" version="1.1" xmlns="http://www.w3.org/2000/svg" xmlns:xlink="http://www.w3.org/1999/xlink" xml:space="preserve" xmlns:serif="http://www.serif.com/" style="fill-rule:evenodd;clip-rule:evenodd;stroke-linejoin:round;stroke-miterlimit:2;">
    <g id="Calque-1" serif:id="Calque 1" transform="matrix(4.16667,0,0,4.16667,0,0)">
        <g transform="matrix(1,0,0,1,496.857,0.0038)">
            <path d="M0,144.129C8.445,144.129 13.521,143.531 17.273,142.922L17.273,115.942C13.021,116.483 7.161,116.785 2.883,116.785C-25.84,116.785 -47.201,99.671 -47.201,72.065C-47.201,45.53 -25.416,27.357 2.665,27.357C6.943,27.357 12.183,27.731 15.336,27.948L15.336,0.969C10.914,0.455 5.893,0 0.445,0C-44.196,0 -77.75,29.87 -77.75,72.065C-77.75,115.947 -44.398,144.129 0,144.129" style="fill:rgb(29,29,27);fill-rule:nonzero;"/>
        </g>
        <g transform="matrix(1,0,0,1,152.674,42.7498)">
            <path d="M0,58.635L17.717,-1.166L18.125,-1.166L35.839,58.635L0,58.635ZM3.923,-41.06L-43.239,99.695L-12.166,99.695L-7.225,83.019L43.064,83.019L48.006,99.695L79.078,99.695L31.921,-41.06L3.923,-41.06Z" style="fill:rgb(29,29,27);fill-rule:nonzero;"/>
        </g>
        <g transform="matrix(1,0,0,1,29.6699,142.443)">
            <path d="M0,-140.753L-29.67,-140.753L-29.67,0L50.794,0L50.794,-26.231L0,-26.231L0,-140.753Z" style="fill:rgb(29,29,27);fill-rule:nonzero;"/>
        </g>
        <g transform="matrix(1,0,0,1,719.095,27.9209)">
            <path d="M0,88.291L0,-26.231L-29.673,-26.231L-29.673,114.522L50.795,114.522L50.795,88.291L0,88.291Z" style="fill:rgb(29,29,27);fill-rule:nonzero;"/>
        </g>
        <g transform="matrix(1,0,0,1,380.1,142.444)">
            <path d="M0,-140.754L-29.668,-140.754L-29.668,-60.143L-92.868,-140.754L-112.682,-140.754L-112.682,0L-83.016,0L-83.016,-80.622L-19.813,0L0,0L0,-140.754Z" style="fill:rgb(29,29,27);fill-rule:nonzero;"/>
        </g>
        <g transform="matrix(1,0,0,1,587.125,60.906)">
            <path d="M0,22.322L46.649,22.322L46.649,-1.776L0,-1.776L0,-32.984L53.051,-32.984L53.051,-59.216L-29.673,-59.216L-29.673,81.538L55.663,81.538L55.663,55.306L0,55.306L0,22.322Z" style="fill:rgb(29,29,27);fill-rule:nonzero;"/>
        </g>
        <g transform="matrix(1,0,0,1,465.947,214.002)">
            <path d="M0,-26.762L17.058,-26.762L3.37,4.495L8.784,4.495L24.106,-31.104L24.106,-31.257L0,-31.257L0,-26.762Z" style="fill:rgb(29,29,27);fill-rule:nonzero;"/>
        </g>
        <g transform="matrix(1,0,0,1,411.451,211.091)">
            <path d="M0,-21.961L0,-17.518L7.15,-20.94L7.15,7.406L11.951,7.406L11.951,-29.367L11.798,-29.367L0,-21.961Z" style="fill:rgb(29,29,27);fill-rule:nonzero;"/>
        </g>
        <g transform="matrix(1,0,0,1,446.334,186.27)">
            <path d="M0,28.601C-3.983,28.601 -7.354,25.485 -7.354,21.144C-7.354,16.701 -4.035,13.636 0,13.636C4.035,13.636 7.355,16.701 7.355,21.144C7.355,25.537 4.086,28.601 0,28.601M0,-0.001C2.656,-0.001 4.699,2.042 4.699,4.801C4.699,7.559 2.656,9.601 0,9.601C-2.655,9.601 -4.698,7.559 -4.698,4.801C-4.698,2.042 -2.655,-0.001 0,-0.001M6.129,11.287C8.121,9.755 9.5,7.455 9.5,4.801C9.5,-0.511 5.262,-4.137 0,-4.137C-5.26,-4.137 -9.499,-0.511 -9.499,4.801C-9.499,7.507 -8.121,9.806 -6.078,11.337C-9.652,13.228 -12.206,16.751 -12.206,21.093C-12.206,27.988 -6.793,32.738 0,32.738C6.691,32.738 12.207,27.988 12.207,21.093C12.207,16.701 9.653,13.177 6.129,11.287" style="fill:rgb(29,29,27);fill-rule:nonzero;"/>
        </g>
        <g transform="matrix(1,0,0,1,507.726,186.932)">
            <path d="M0,27.99C-4.035,27.99 -7.355,24.977 -7.355,20.227C-7.355,15.477 -4.035,12.464 0,12.464C4.035,12.464 7.354,15.477 7.354,20.227C7.354,24.977 4.035,27.99 0,27.99M0.357,8.276C-0.408,8.276 -1.072,8.378 -1.736,8.531L7.763,-4.187L1.788,-4.187L-8.121,9.553C-11.595,14.353 -12.258,16.958 -12.258,20.227C-12.258,27.377 -6.742,32.177 0,32.177C6.741,32.177 12.258,27.377 12.258,20.227C12.258,13.179 6.793,8.276 0.357,8.276" style="fill:rgb(29,29,27);fill-rule:nonzero;"/>
        </g>
        <g transform="matrix(1,0,0,1,0,182.132)">
            <rect x="348.427" y="0.613" width="5.21" height="35.752" style="fill:rgb(29,29,27);"/>
        </g>
        <g transform="matrix(1,0,0,1,319.315,201.744)">
            <path d="M0,-2.246L0,-14.504L5.21,-14.504C9.04,-14.504 11.645,-11.95 11.645,-8.375C11.645,-4.749 9.04,-2.246 5.21,-2.246L0,-2.246ZM17.059,-8.426C17.059,-14.556 12.564,-18.999 5.363,-18.999L-5.21,-18.999L-5.21,16.753L0,16.753L0,2.248L3.677,2.248L12.922,16.753L19.153,16.753L9.398,1.686C14.147,0.256 17.059,-3.625 17.059,-8.426" style="fill:rgb(29,29,27);fill-rule:nonzero;"/>
        </g>
        <g transform="matrix(1,0,0,1,285.096,193.573)">
            <path d="M0,13.074L5.21,-0.103L10.419,13.074L0,13.074ZM5.261,-11.85L-9.908,24.924L-4.699,24.924L-1.788,17.569L12.207,17.569L15.118,24.924L20.583,24.924L5.414,-11.85L5.261,-11.85Z" style="fill:rgb(29,29,27);fill-rule:nonzero;"/>
        </g>
        <g transform="matrix(1,0,0,1,260.734,200.672)">
            <path d="M0,-0.102L-5.618,-0.102L-5.618,-13.432L0,-13.432C3.779,-13.432 6.589,-10.573 6.589,-6.792C6.589,-3.013 3.779,-0.102 0,-0.102M0,-17.927L-10.828,-17.927L-10.828,17.825L-5.618,17.825L-5.618,4.392L0,4.392C7.201,4.392 12.002,-0.459 12.002,-6.792C12.002,-13.126 7.201,-17.927 0,-17.927" style="fill:rgb(29,29,27);fill-rule:nonzero;"/>
        </g>
        <g transform="matrix(1,0,0,1,378.662,203.123)">
            <path d="M0,-5.055L-1.327,-5.516C-5.873,-7.098 -8.171,-8.579 -8.171,-11.286C-8.171,-13.943 -5.924,-16.446 -2.093,-16.446C0.613,-16.446 2.861,-14.964 4.393,-12.36L8.785,-15.118C6.844,-18.794 2.758,-21.041 -1.991,-21.041C-8.171,-21.041 -13.432,-16.802 -13.432,-10.929C-13.432,-5.617 -9.499,-2.706 -3.575,-0.714L-2.196,-0.254C1.941,1.125 3.984,2.809 3.984,5.72C3.984,9.091 1.226,11.389 -2.604,11.389C-6.179,11.389 -9.244,9.398 -11.185,5.771L-15.628,8.53C-13.177,13.432 -8.171,15.986 -2.604,15.986C4.291,15.986 9.296,11.799 9.296,5.619C9.296,0.001 5.976,-3.012 0,-5.055" style="fill:rgb(29,29,27);fill-rule:nonzero;"/>
        </g>
    </g>
</svg>
