<?xml version="1.0" encoding="UTF-8" standalone="no"?>
<!DOCTYPE svg PUBLIC "-//W3C//DTD SVG 1.1//EN" "http://www.w3.org/Graphics/SVG/1.1/DTD/svg11.dtd">
<svg width="100%" height="100%" viewBox="0 0 3208 913" version="1.1" xmlns="http://www.w3.org/2000/svg" xmlns:xlink="http://www.w3.org/1999/xlink" xml:space="preserve" xmlns:serif="http://www.serif.com/" style="fill-rule:evenodd;clip-rule:evenodd;stroke-linejoin:round;stroke-miterlimit:2;">
    <g id="ink_ext_XXXXXX" transform="matrix(5.84635,0,0,-5.84635,0.203381,608.573)">
        <path id="path14" d="M163.9,35.8C165.2,35.9 166.5,35.9 167.8,36C168.2,28.2 168.2,20.4 167.8,12.6C166.5,12.7 165.2,12.7 163.9,12.8C163.7,20.4 163.7,28.1 163.9,35.8" style="fill:rgb(0,150,215);fill-rule:nonzero;"/>
        <path id="path16" d="M240.6,35.9C241.9,35.9 243.2,35.8 244.6,35.8C244.8,31.5 244.7,27.1 244.7,22.7C252.4,16.1 263.2,16 272.7,16.9C277.1,17.7 282.1,18.6 285.2,22.2C286.5,26.5 285.5,31.2 285.9,35.7C287.2,35.8 288.5,35.9 289.8,36C290.3,31 291.2,25.8 289.5,21C286.5,15.6 279.8,13.8 274.1,12.8C264.8,11.9 254.8,11.7 246.4,16.2C243.8,17.7 240.8,19.9 240.5,23.2C240.2,27.5 240.4,31.7 240.6,35.9" style="fill:rgb(0,150,215);fill-rule:nonzero;"/>
        <path id="path18" d="M49.1,27.8C49.1,27.3 48.9,26.4 48.9,25.9C41.2,22.6 32.6,21.7 24.3,21.8C21.4,21.8 18,21.6 15.9,24.1C15,26.2 15,28.5 14.6,30.7C26.1,32.5 38.3,32.5 49.1,27.8ZM61.9,31.2C61.9,34.8 62.2,38.5 60.8,41.8C58.4,48 51.9,52.2 45.3,52C38.1,51.9 30.8,52.4 23.5,51.7C15.5,50.3 10.2,42.3 10.4,34.4C7,33 2.8,32.1 0.8,28.6C-0.7,23.3 0.2,17.7 0.6,12.4C1.9,12.5 3.2,12.5 4.5,12.6C4.7,17.5 4.5,22.4 4.7,27.3C6.6,28.1 8.5,28.9 10.4,29.7C10.7,26.8 10.4,23.6 12.4,21.2C14.8,18.4 18.7,17.6 22.2,17.6C31,17.6 40.2,17.6 48.5,21C51,22.1 54.2,24 53.9,27.1C53.7,30.2 50.4,31.9 47.8,32.9C37.2,36.7 25.7,36.1 14.7,35.4C15.4,38.9 16.2,42.8 19.3,45C24,49 30.5,47.5 36.1,47.8C42,47.5 48.8,49.1 53.6,44.6C58.6,40.2 57.5,33.1 57.6,27.2C57.3,21.8 58.5,16.2 56.2,11.1C54.3,7 49.7,4.5 45.2,4.6C38.2,4.7 31.2,4.4 24.3,4.8C19.8,5.2 17,9.1 14.4,12.4C13.7,12.1 12.3,11.4 11.6,11.1C11.8,7.7 14.5,5.1 17,3.2C21.8,-0.2 27.8,0 33.2,0C38.3,0.1 43.5,-0.4 48.5,0.5C55.6,1.6 61.4,8 61.8,15.2C62,20.6 61.8,25.9 61.9,31.2" style="fill:rgb(0,150,215);fill-rule:nonzero;"/>
        <path id="path20" d="M142.3,23.3C130.6,21 118.5,21.7 106.9,24.1L106.9,27.4C113.2,30.6 120.3,31.9 127.3,31.8C135.9,32.1 144.9,31.4 152.5,27.1C149.3,25.4 145.9,23.9 142.3,23.3ZM156.1,27.2C155.9,31 151.7,32.5 148.7,33.6C139.5,36.2 129.7,36.9 120.2,35.7C115.3,35.1 110.2,34.2 105.9,31.6C104.3,30.6 102.7,29.2 102.7,27.2C102.4,22.4 102.6,17.5 102.8,12.6L106.7,12.6C106.8,15 106.9,17.4 106.9,19.8C112.6,18.6 118.4,17.8 124.3,17.8C133.1,17.7 142.2,17.9 150.6,21C153.1,22.1 156.4,24 156.1,27.2" style="fill:rgb(0,150,215);fill-rule:nonzero;"/>
        <path id="path22" d="M225.8,21.4C223,22.1 220.7,24.7 217.6,23.8C217.7,21.9 218.8,20.3 219.8,18.7C208.9,15.9 197,15.6 186.3,19.4C183.6,20.5 179.2,22 180.5,25.8C188.4,32.2 199.6,32.1 209.3,31.7C215.4,31 222.3,30.2 227,25.8C228.9,24.5 227.1,22.3 225.8,21.4ZM229.5,18.2C231.1,20.7 233,23.5 231.7,26.5C229.8,30.7 225,32.4 220.9,33.8C208.8,37.2 195.5,37.1 183.6,32.6C179.5,31.1 174.6,27.5 175.8,22.6C177.6,17.4 183.5,15.5 188.3,14.1C200.1,11.2 212.8,11.6 224.3,15.6C226.6,13.9 229.1,12.2 232.1,12.3C232,14.6 230.8,16.5 229.5,18.2" style="fill:rgb(0,150,215);fill-rule:nonzero;"/>
        <path id="path24" d="M396.6,16.7C387.7,16.5 378.7,16.5 369.8,16.8C369.5,21.8 369.5,26.7 369.8,31.7C378.6,32 387.5,31.9 396.3,31.8C403.7,31.3 412.1,30.2 417.3,24.3C412.2,18.4 403.9,17.2 396.6,16.7ZM420.6,25.8C419.2,30.1 414.6,32.2 410.6,33.6C399.9,37.1 388.4,36.3 377.3,36.5C374.4,36.5 371.4,36.7 368.5,36C365.2,35.1 365.1,31.1 365,28.3C365.1,23.8 364.4,19.2 365.8,14.9C367.3,11.7 371.3,12.6 374.2,12.4C387.5,12.8 401.6,10.8 414.1,16.4C417.7,17.9 421.7,21.4 420.6,25.8" style="fill:rgb(0,150,215);fill-rule:nonzero;"/>
        <path id="path26" d="M465.7,22.7C455.2,21.3 444.4,21.9 434,24.1C434,25.2 434,26.3 433.9,27.4C440.1,30.6 447.2,31.8 454.2,31.8C462.8,32 471.9,31.5 479.6,27.1C475.2,24.8 470.5,23.2 465.7,22.7ZM481.6,30.5C479.1,32.8 475.7,33.7 472.5,34.5C461.5,36.8 450.1,37 439.2,34.2C435.8,33.2 432.2,31.9 430.1,28.9C429.1,23.5 429.8,18 429.8,12.6L433.7,12.6C433.8,15 433.9,17.4 434,19.8C440,18.5 446.2,17.8 452.3,17.8C455.8,18.1 458.8,16.2 462,15.1C468.4,12.7 475.2,12.2 481.9,12.5L481.9,16.5C476.5,16.6 471.2,17.2 465.9,18.2C471.1,19.2 476.9,19.8 481.2,23.2C483.6,24.8 483.8,28.7 481.6,30.5" style="fill:rgb(0,150,215);fill-rule:nonzero;"/>
        <path id="path28" d="M542.2,21.4C534.4,16.8 525,16.3 516.2,16.7C509.3,17 502.3,18.6 496.6,22.7L496.6,25.7C505.3,32.1 516.7,32.3 527,31.6C532.9,30.8 539.2,29.8 543.8,25.7C544.4,24 543.9,22.1 542.2,21.4ZM546.7,28.8C542.2,33.2 535.6,34.5 529.6,35.6C518.9,36.8 507.6,36.5 497.8,31.7C494.6,30.4 492.9,27.2 491.4,24.3C492.8,21.6 494.2,18.6 497.2,17.2C507.1,12 518.9,11.9 529.8,12.9C535.8,14 542.3,15.2 546.8,19.7C549.3,22.1 549.3,26.4 546.7,28.8" style="fill:rgb(0,150,215);fill-rule:nonzero;"/>
        <path id="path30" d="M309.3,24.1C314.6,27.9 320.5,32.4 327.3,31.7C333,30.8 337.7,27.3 342.3,24.1C331.9,19.7 319.7,19.6 309.3,24.1ZM350.1,23.1C344.9,27.7 339.3,32.2 332.7,34.8C327.5,36.9 321.5,36.4 316.5,33.9C308.7,30.1 302.1,24.3 296.4,18C294.8,16.5 294.4,14.3 294.4,12.2C299.7,12.5 301.6,18.3 305.6,20.8C309.2,19.9 312.6,18 316.3,17.3C326.3,15.5 336.9,16.5 346.1,21.1C349,18.4 351.7,15.4 354.1,12.3C355.2,12.4 356.3,12.6 357.4,12.7C356.9,17.3 353.1,20.2 350.1,23.1" style="fill:rgb(0,150,215);fill-rule:nonzero;"/>
    </g>
</svg>
