<?xml version="1.0" encoding="UTF-8" standalone="no"?>
<!DOCTYPE svg PUBLIC "-//W3C//DTD SVG 1.1//EN" "http://www.w3.org/Graphics/SVG/1.1/DTD/svg11.dtd">
<svg width="100%" height="100%" viewBox="0 0 3208 913" version="1.1" xmlns="http://www.w3.org/2000/svg" xmlns:xlink="http://www.w3.org/1999/xlink" xml:space="preserve" xmlns:serif="http://www.serif.com/" style="fill-rule:evenodd;clip-rule:evenodd;stroke-linejoin:round;stroke-miterlimit:2;">
    <g transform="matrix(2.83695,0,0,2.83695,0,-154.825)">
        <g transform="matrix(4.16667,0,0,4.16667,567.749,300.811)">
            <path d="M0,-8.697L7.227,-8.697L7.227,-6.83L2.739,-6.83L2.739,-5.451L6.886,-5.451L6.886,-3.694L2.739,-3.694L2.739,-1.951L7.324,-1.951L7.324,0L0,0L0,-8.697ZM-11.926,-8.697L-4.271,-8.697L-4.271,-6.945L-9.213,-1.886L-4.145,-1.886L-4.145,0L-12.391,0L-12.391,-1.83L-7.561,-6.83L-11.926,-6.83L-11.926,-8.697ZM-24.756,-8.697L-22.21,-8.697L-18.947,-3.877L-18.947,-8.697L-16.388,-8.697L-16.388,0L-18.947,0L-22.202,-4.799L-22.202,0L-24.756,0L-24.756,-8.697ZM-36.465,-8.697L-29.237,-8.697L-29.237,-6.83L-33.773,-6.83L-33.773,-5.451L-29.599,-5.451L-29.599,-3.694L-33.773,-3.694L-33.773,-1.951L-29.142,-1.951L-29.142,0L-36.465,0L-36.465,-8.697ZM-46.132,-5.207L-44.963,-5.207C-44.868,-5.207 -44.645,-5.247 -44.251,-5.29C-44.124,-5.331 -43.954,-5.387 -43.805,-5.597C-43.718,-5.726 -43.685,-5.865 -43.685,-6.083C-43.685,-6.33 -43.739,-6.588 -43.946,-6.733C-44.138,-6.84 -44.44,-6.932 -44.935,-6.932L-46.132,-6.932L-46.132,-5.207ZM-48.809,0L-48.809,-8.697L-44.355,-8.697C-43.504,-8.697 -42.841,-8.649 -42.438,-8.507C-41.993,-8.345 -41.614,-8.117 -41.349,-7.711C-41.089,-7.295 -40.989,-6.824 -40.989,-6.287C-40.989,-5.796 -41.068,-5.371 -41.275,-5.016C-41.501,-4.723 -41.77,-4.388 -42.088,-4.224C-42.329,-4.03 -42.683,-3.904 -43.043,-3.85C-42.746,-3.761 -42.507,-3.646 -42.337,-3.517C-42.259,-3.426 -42.088,-3.321 -41.958,-3.052C-41.765,-2.843 -41.605,-2.671 -41.55,-2.512L-40.28,0L-43.279,0L-44.73,-2.676C-44.921,-3.004 -45.103,-3.254 -45.207,-3.337C-45.423,-3.442 -45.639,-3.523 -45.888,-3.523L-46.132,-3.523L-46.132,0L-48.809,0ZM-56.383,-8.697L-53.691,-8.697L-53.691,0L-56.383,0L-56.383,-8.697ZM-67.532,-8.697L-60.905,-8.697L-60.905,-6.824L-64.837,-6.824L-64.837,-5.301L-61.451,-5.301L-61.451,-3.539L-64.837,-3.539L-64.837,0L-67.532,0L-67.532,-8.697Z" style="fill:rgb(152,120,81);"/>
        </g>
        <g transform="matrix(4.16667,0,0,4.16667,0,197.34)">
            <path d="M0,-15.948L14.982,-15.948L14.982,-12.04L9.941,-12.04L9.941,0L5.045,0L5.045,-12.04L0,-12.04L0,-15.948Z" style="fill:rgb(152,120,81);"/>
        </g>
        <g transform="matrix(4.16667,0,0,4.16667,1074.46,197.34)">
            <path d="M0,-15.948L13.203,-15.948L13.203,-12.599L4.96,-12.599L4.96,-10.041L12.6,-10.041L12.6,-6.805L4.96,-6.805L4.96,-3.58L13.509,-3.58L13.509,0L0,0L0,-15.948Z" style="fill:rgb(152,120,81);"/>
        </g>
        <g transform="matrix(4.16667,0,0,4.16667,-675.028,-2251.78)">
            <rect x="330.749" y="571.84" width="4.893" height="15.948" style="fill:rgb(152,120,81);"/>
        </g>
        <g transform="matrix(4.16667,0,0,4.16667,273.543,197.34)">
            <path d="M0,-15.948L13.157,-15.948L13.157,-12.599L4.895,-12.599L4.895,-10.041L12.604,-10.041L12.604,-6.805L4.895,-6.805L4.895,-3.58L13.374,-3.58L13.374,0L0,0L0,-15.948Z" style="fill:rgb(152,120,81);"/>
        </g>
        <g transform="matrix(4.16667,0,0,4.16667,463.053,145.666)">
            <path d="M0,8.946L-2.065,8.946L-2.065,5.753L0.099,5.753C1.855,5.753 2.744,5.951 2.744,7.288C2.744,8.88 1.781,8.946 0,8.946M-2.065,-0.33L-0.453,-0.33C1.304,-0.33 2.205,-0.028 2.205,1.216C2.205,2.35 1.304,2.692 -0.453,2.692L-2.065,2.692L-2.065,-0.33ZM4.702,3.925C6.328,3.251 7.139,1.838 7.139,0.348C7.139,-1.539 5.882,-3.546 2.013,-3.546L-7.12,-3.546L-7.12,12.492L2.461,12.492C5.34,12.492 7.788,10.543 7.788,7.882C7.788,5.826 7.022,4.8 4.702,3.925" style="fill:rgb(152,120,81);"/>
        </g>
        <g transform="matrix(4.16667,0,0,4.16667,827.299,146.611)">
            <path d="M0,8.394L-1.354,8.394L-1.354,0.02L0.014,0.02C2.642,0.02 3.52,2.104 3.52,4.158C3.52,7.026 2.424,8.394 0,8.394M0.739,-3.773L-6.281,-3.773L-6.281,12.167L1.68,12.167C6.489,12.167 8.447,8 8.447,4.401C8.447,0.684 6.319,-3.773 0.739,-3.773" style="fill:rgb(152,120,81);"/>
        </g>
        <g transform="matrix(4.16667,0,0,4.16667,1000.31,168.755)">
            <path d="M0,-2.36L-7.703,-2.36L-7.703,1.001L-4.36,1.001L-4.36,2.542C-9.71,5.266 -11.293,1.693 -11.293,-1.191C-11.293,-3.869 -10.852,-6.167 -6.939,-5.979C-6.077,-5.906 -5.027,-5.198 -5.027,-4.148L-0.196,-5.041C-1.591,-9.663 -5.35,-9.45 -7.708,-9.45C-13.627,-9.45 -16.23,-5.877 -16.23,-1.078C-16.23,2.942 -14.133,6.962 -7.996,6.962C-6.365,6.962 -3.947,7.303 0,4.492L0,-2.36Z" style="fill:rgb(152,120,81);"/>
        </g>
        <g transform="matrix(4.16667,0,0,4.16667,594.425,170.369)">
            <path d="M0,-3.009L-1.332,-3.009L-1.332,-6.192L0.146,-6.192C1.712,-6.192 3.254,-6.001 3.254,-4.588C3.254,-3.157 1.615,-3.009 0,-3.009M7.214,2.345C6.47,0.704 5.486,-0.067 4.506,-0.566C7.007,-1.216 8.09,-3.236 8.09,-4.953C8.09,-8.454 5.653,-9.475 1.814,-9.475L-6.252,-9.475L-6.252,6.466L-1.238,6.466L-1.238,0.023L-0.695,0.023C0.667,0.023 1.163,1.267 2.65,4.198L3.797,6.466L9.431,6.466L7.214,2.345Z" style="fill:rgb(152,120,81);"/>
        </g>
        <g transform="matrix(4.16667,0,0,4.16667,134.074,197.34)">
            <path d="M0,-15.948L4.895,-15.948L4.895,-10.412L10.243,-10.412L10.243,-15.948L15.287,-15.948L15.287,0L10.243,0L10.243,-6.477L4.895,-6.477L4.895,0L0,0L0,-15.948Z" style="fill:rgb(152,120,81);"/>
        </g>
        <g transform="matrix(-4.16667,0,0,4.16667,2021.15,-2015.14)">
            <rect x="322.32" y="546.951" width="2.442" height="8.934" style="fill:rgb(152,120,81);"/>
        </g>
        <g transform="matrix(4.16667,0,0,4.16667,730.221,288.051)">
            <path d="M0,-2.689C0,-3.041 -0.108,-3.336 -0.322,-3.575C-0.537,-3.813 -0.812,-3.932 -1.147,-3.932C-1.423,-3.932 -1.649,-3.865 -1.827,-3.729C-2.006,-3.594 -2.135,-3.431 -2.214,-3.24C-2.294,-3.048 -2.333,-2.865 -2.333,-2.689C-2.333,-2.281 -2.219,-1.978 -1.988,-1.783C-1.759,-1.587 -1.491,-1.49 -1.187,-1.49C-0.898,-1.49 -0.666,-1.556 -0.49,-1.69C-0.314,-1.823 -0.189,-1.98 -0.113,-2.16C-0.038,-2.34 0,-2.517 0,-2.689M2.326,-2.399C2.326,-1.724 2.181,-1.049 1.889,-0.374C1.596,0.3 1.181,0.947 0.642,1.565C0.102,2.184 -0.524,2.745 -1.237,3.248L-3.442,2.526C-2.419,1.654 -1.663,0.848 -1.173,0.109C-1.332,0.152 -1.53,0.173 -1.767,0.173C-2.29,0.173 -2.772,0.053 -3.21,-0.188C-3.648,-0.428 -3.998,-0.771 -4.261,-1.215C-4.522,-1.661 -4.653,-2.165 -4.653,-2.727C-4.653,-3.14 -4.574,-3.538 -4.415,-3.919C-4.256,-4.302 -4.022,-4.648 -3.713,-4.957C-3.403,-5.267 -3.036,-5.507 -2.61,-5.679C-2.186,-5.851 -1.719,-5.937 -1.212,-5.937C-0.645,-5.937 -0.136,-5.84 0.315,-5.647C0.767,-5.454 1.14,-5.189 1.434,-4.854C1.728,-4.519 1.95,-4.142 2.101,-3.723C2.251,-3.304 2.326,-2.863 2.326,-2.399" style="fill:rgb(152,120,81);fill-rule:nonzero;"/>
        </g>
        <g transform="matrix(4.16667,0,0,4.16667,782.621,276.771)">
            <path d="M0,2.7C0,2.288 -0.115,1.983 -0.345,1.788C-0.575,1.593 -0.845,1.495 -1.154,1.495C-1.562,1.495 -1.862,1.625 -2.054,1.885C-2.244,2.144 -2.34,2.417 -2.34,2.7C-2.34,3.044 -2.229,3.336 -2.008,3.577C-1.787,3.817 -1.515,3.937 -1.192,3.937C-0.918,3.937 -0.692,3.871 -0.516,3.738C-0.34,3.604 -0.21,3.442 -0.126,3.251C-0.042,3.06 0,2.876 0,2.7M2.32,2.739C2.32,3.151 2.239,3.55 2.078,3.934C1.917,4.319 1.684,4.664 1.379,4.968C1.074,5.274 0.709,5.513 0.283,5.684C-0.142,5.856 -0.612,5.942 -1.128,5.942C-1.872,5.942 -2.512,5.777 -3.049,5.449C-3.586,5.12 -3.989,4.686 -4.258,4.147C-4.526,3.608 -4.66,3.029 -4.66,2.41C-4.66,1.907 -4.576,1.401 -4.409,0.892C-4.241,0.383 -3.998,-0.119 -3.678,-0.616C-3.357,-1.113 -2.984,-1.576 -2.559,-2.008C-2.134,-2.44 -1.646,-2.852 -1.096,-3.242L1.108,-2.514C0.756,-2.213 0.451,-1.94 0.193,-1.693C-0.064,-1.446 -0.309,-1.189 -0.542,-0.922C-0.773,-0.656 -0.982,-0.383 -1.167,-0.104C-1.004,-0.147 -0.806,-0.168 -0.574,-0.168C-0.05,-0.168 0.433,-0.048 0.873,0.193C1.314,0.433 1.665,0.775 1.927,1.218C2.189,1.66 2.32,2.167 2.32,2.739" style="fill:rgb(152,120,81);fill-rule:nonzero;"/>
        </g>
        <g transform="matrix(4.16667,0,0,4.16667,834.855,288.051)">
            <path d="M0,-2.689C0,-3.041 -0.108,-3.336 -0.322,-3.575C-0.537,-3.813 -0.812,-3.932 -1.148,-3.932C-1.423,-3.932 -1.649,-3.865 -1.827,-3.729C-2.006,-3.594 -2.135,-3.431 -2.214,-3.24C-2.294,-3.048 -2.333,-2.865 -2.333,-2.689C-2.333,-2.281 -2.219,-1.978 -1.988,-1.783C-1.759,-1.587 -1.491,-1.49 -1.187,-1.49C-0.898,-1.49 -0.666,-1.556 -0.49,-1.69C-0.314,-1.823 -0.189,-1.98 -0.113,-2.16C-0.038,-2.34 0,-2.517 0,-2.689M2.326,-2.399C2.326,-1.724 2.181,-1.049 1.889,-0.374C1.596,0.3 1.181,0.947 0.642,1.565C0.102,2.184 -0.524,2.745 -1.237,3.248L-3.442,2.526C-2.419,1.654 -1.663,0.848 -1.173,0.109C-1.332,0.152 -1.53,0.173 -1.767,0.173C-2.29,0.173 -2.772,0.053 -3.21,-0.188C-3.648,-0.428 -3.998,-0.771 -4.261,-1.215C-4.523,-1.661 -4.653,-2.165 -4.653,-2.727C-4.653,-3.14 -4.574,-3.538 -4.415,-3.919C-4.256,-4.302 -4.023,-4.648 -3.713,-4.957C-3.403,-5.267 -3.036,-5.507 -2.61,-5.679C-2.186,-5.851 -1.719,-5.937 -1.212,-5.937C-0.645,-5.937 -0.136,-5.84 0.315,-5.647C0.767,-5.454 1.14,-5.189 1.434,-4.854C1.728,-4.519 1.95,-4.142 2.101,-3.723C2.251,-3.304 2.326,-2.863 2.326,-2.399" style="fill:rgb(152,120,81);fill-rule:nonzero;"/>
        </g>
    </g>
</svg>
