<?xml version="1.0" encoding="utf-8"?>
<!-- Generator: Adobe Illustrator 24.2.0, SVG Export Plug-In . SVG Version: 6.00 Build 0)  -->
<svg version="1.1"
	 id="svg2" inkscape:version="0.92.3 (2405546, 2018-03-11)" sodipodi:docname="logo.svg" xmlns:cc="http://creativecommons.org/ns#" xmlns:dc="http://purl.org/dc/elements/1.1/" xmlns:inkscape="http://www.inkscape.org/namespaces/inkscape" xmlns:rdf="http://www.w3.org/1999/02/22-rdf-syntax-ns#" xmlns:sodipodi="http://sodipodi.sourceforge.net/DTD/sodipodi-0.dtd" xmlns:svg="http://www.w3.org/2000/svg"
	 xmlns="http://www.w3.org/2000/svg" xmlns:xlink="http://www.w3.org/1999/xlink" x="0px" y="0px" viewBox="0 0 731.6 69.4"
	 style="enable-background:new 0 0 731.6 69.4;" xml:space="preserve">
<sodipodi:namedview  bordercolor="#666666" borderopacity="1" gridtolerance="10" guidetolerance="10" id="namedview4" inkscape:current-layer="g10" inkscape:cx="369.28868" inkscape:cy="34.686668" inkscape:pageopacity="0" inkscape:pageshadow="2" inkscape:window-height="948" inkscape:window-maximized="0" inkscape:window-width="1846" inkscape:window-x="0" inkscape:window-y="20" inkscape:zoom="0.57001476" objecttolerance="10" pagecolor="#ffffff" showgrid="false">
	</sodipodi:namedview>
<g id="g10" transform="matrix(1.3333333,0,0,-1.3333333,0,69.373333)" inkscape:groupmode="layer" inkscape:label="ink_ext_XXXXXX">
	<path id="path14" inkscape:connector-curvature="0" d="M163.9,35.8c1.3,0.1,2.6,0.1,3.9,0.2c0.4-7.8,0.4-15.6,0-23.4
		c-1.3,0.1-2.6,0.1-3.9,0.2C163.7,20.4,163.7,28.1,163.9,35.8L163.9,35.8"/>
	<path id="path16" inkscape:connector-curvature="0" d="M240.6,35.9c1.3,0,2.6-0.1,4-0.1c0.2-4.3,0.1-8.7,0.1-13.1
		c7.7-6.6,18.5-6.7,28-5.8c4.4,0.8,9.4,1.7,12.5,5.3c1.3,4.3,0.3,9,0.7,13.5c1.3,0.1,2.6,0.2,3.9,0.3c0.5-5,1.4-10.2-0.3-15
		c-3-5.4-9.7-7.2-15.4-8.2c-9.3-0.9-19.3-1.1-27.7,3.4c-2.6,1.5-5.6,3.7-5.9,7C240.2,27.5,240.4,31.7,240.6,35.9L240.6,35.9"/>
	<path id="path18" inkscape:connector-curvature="0" d="M49.1,27.8c0-0.5-0.2-1.4-0.2-1.9c-7.7-3.3-16.3-4.2-24.6-4.1
		c-2.9,0-6.3-0.2-8.4,2.3c-0.9,2.1-0.9,4.4-1.3,6.6C26.1,32.5,38.3,32.5,49.1,27.8z M61.9,31.2c0,3.6,0.3,7.3-1.1,10.6
		C58.4,48,51.9,52.2,45.3,52c-7.2-0.1-14.5,0.4-21.8-0.3c-8-1.4-13.3-9.4-13.1-17.3C7,33,2.8,32.1,0.8,28.6
		c-1.5-5.3-0.6-10.9-0.2-16.2c1.3,0.1,2.6,0.1,3.9,0.2c0.2,4.9,0,9.8,0.2,14.7c1.9,0.8,3.8,1.6,5.7,2.4c0.3-2.9,0-6.1,2-8.5
		c2.4-2.8,6.3-3.6,9.8-3.6c8.8,0,18,0,26.3,3.4c2.5,1.1,5.7,3,5.4,6.1c-0.2,3.1-3.5,4.8-6.1,5.8c-10.6,3.8-22.1,3.2-33.1,2.5
		c0.7,3.5,1.5,7.4,4.6,9.6c4.7,4,11.2,2.5,16.8,2.8c5.9-0.3,12.7,1.3,17.5-3.2c5-4.4,3.9-11.5,4-17.4c-0.3-5.4,0.9-11-1.4-16.1
		c-1.9-4.1-6.5-6.6-11-6.5c-7,0.1-14-0.2-20.9,0.2c-4.5,0.4-7.3,4.3-9.9,7.6c-0.7-0.3-2.1-1-2.8-1.3c0.2-3.4,2.9-6,5.4-7.9
		C21.8-0.2,27.8,0,33.2,0c5.1,0.1,10.3-0.4,15.3,0.5c7.1,1.1,12.9,7.5,13.3,14.7C62,20.6,61.8,25.9,61.9,31.2"/>
	<path id="path20" inkscape:connector-curvature="0" d="M142.3,23.3c-11.7-2.3-23.8-1.6-35.4,0.8c0,1.1,0,2.2,0,3.3
		c6.3,3.2,13.4,4.5,20.4,4.4c8.6,0.3,17.6-0.4,25.2-4.7C149.3,25.4,145.9,23.9,142.3,23.3L142.3,23.3z M156.1,27.2
		c-0.2,3.8-4.4,5.3-7.4,6.4c-9.2,2.6-19,3.3-28.5,2.1c-4.9-0.6-10-1.5-14.3-4.1c-1.6-1-3.2-2.4-3.2-4.4c-0.3-4.8-0.1-9.7,0.1-14.6
		c1.3,0,2.6,0,3.9,0c0.1,2.4,0.2,4.8,0.2,7.2c5.7-1.2,11.5-2,17.4-2c8.8-0.1,17.9,0.1,26.3,3.2C153.1,22.1,156.4,24,156.1,27.2"/>
	<path id="path22" inkscape:connector-curvature="0" d="M225.8,21.4c-2.8,0.7-5.1,3.3-8.2,2.4c0.1-1.9,1.2-3.5,2.2-5.1
		c-10.9-2.8-22.8-3.1-33.5,0.7c-2.7,1.1-7.1,2.6-5.8,6.4c7.9,6.4,19.1,6.3,28.8,5.9c6.1-0.7,13-1.5,17.7-5.9
		C228.9,24.5,227.1,22.3,225.8,21.4z M229.5,18.2c1.6,2.5,3.5,5.3,2.2,8.3c-1.9,4.2-6.7,5.9-10.8,7.3c-12.1,3.4-25.4,3.3-37.3-1.2
		c-4.1-1.5-9-5.1-7.8-10c1.8-5.2,7.7-7.1,12.5-8.5c11.8-2.9,24.5-2.5,36,1.5c2.3-1.7,4.8-3.4,7.8-3.3
		C232,14.6,230.8,16.5,229.5,18.2"/>
	<path id="path24" inkscape:connector-curvature="0" d="M396.6,16.7c-8.9-0.2-17.9-0.2-26.8,0.1c-0.3,5-0.3,9.9,0,14.9
		c8.8,0.3,17.7,0.2,26.5,0.1c7.4-0.5,15.8-1.6,21-7.5C412.2,18.4,403.9,17.2,396.6,16.7z M420.6,25.8c-1.4,4.3-6,6.4-10,7.8
		c-10.7,3.5-22.2,2.7-33.3,2.9c-2.9,0-5.9,0.2-8.8-0.5c-3.3-0.9-3.4-4.9-3.5-7.7c0.1-4.5-0.6-9.1,0.8-13.4c1.5-3.2,5.5-2.3,8.4-2.5
		c13.3,0.4,27.4-1.6,39.9,4C417.7,17.9,421.7,21.4,420.6,25.8"/>
	<path id="path26" inkscape:connector-curvature="0" d="M465.7,22.7c-10.5-1.4-21.3-0.8-31.7,1.4c0,1.1,0,2.2-0.1,3.3
		c6.2,3.2,13.3,4.4,20.3,4.4c8.6,0.2,17.7-0.3,25.4-4.7C475.2,24.8,470.5,23.2,465.7,22.7z M481.6,30.5c-2.5,2.3-5.9,3.2-9.1,4
		c-11,2.3-22.4,2.5-33.3-0.3c-3.4-1-7-2.3-9.1-5.3c-1-5.4-0.3-10.9-0.3-16.3c1.3,0,2.6,0,3.9,0c0.1,2.4,0.2,4.8,0.3,7.2
		c6-1.3,12.2-2,18.3-2c3.5,0.3,6.5-1.6,9.7-2.7c6.4-2.4,13.2-2.9,19.9-2.6c0,1.3,0,2.7,0,4c-5.4,0.1-10.7,0.7-16,1.7
		c5.2,1,11,1.6,15.3,5C483.6,24.8,483.8,28.7,481.6,30.5"/>
	<path id="path28" inkscape:connector-curvature="0" d="M542.2,21.4c-7.8-4.6-17.2-5.1-26-4.7c-6.9,0.3-13.9,1.9-19.6,6c0,1,0,2,0,3
		c8.7,6.4,20.1,6.6,30.4,5.9c5.9-0.8,12.2-1.8,16.8-5.9C544.4,24,543.9,22.1,542.2,21.4z M546.7,28.8c-4.5,4.4-11.1,5.7-17.1,6.8
		c-10.7,1.2-22,0.9-31.8-3.9c-3.2-1.3-4.9-4.5-6.4-7.4c1.4-2.7,2.8-5.7,5.8-7.1c9.9-5.2,21.7-5.3,32.6-4.3c6,1.1,12.5,2.3,17,6.8
		C549.3,22.1,549.3,26.4,546.7,28.8"/>
	<path id="path30" inkscape:connector-curvature="0" d="M309.3,24.1c5.3,3.8,11.2,8.3,18,7.6c5.7-0.9,10.4-4.4,15-7.6
		C331.9,19.7,319.7,19.6,309.3,24.1z M350.1,23.1c-5.2,4.6-10.8,9.1-17.4,11.7c-5.2,2.1-11.2,1.6-16.2-0.9
		c-7.8-3.8-14.4-9.6-20.1-15.9c-1.6-1.5-2-3.7-2-5.8c5.3,0.3,7.2,6.1,11.2,8.6c3.6-0.9,7-2.8,10.7-3.5c10-1.8,20.6-0.8,29.8,3.8
		c2.9-2.7,5.6-5.7,8-8.8c1.1,0.1,2.2,0.3,3.3,0.4C356.9,17.3,353.1,20.2,350.1,23.1"/>
</g>
</svg>
